<svg width="93" height="40" viewBox="0 0 93 40" fill="none" xmlns="http://www.w3.org/2000/svg">
<g clip-path="url(#clip0_2001_10)">
<path d="M85.6121 12.4286C83.2498 8.79795 79.9626 2.60867 78.6589 2.60867C77.3551 2.17389 75.1822 2.17389 73.8785 2.17389L55.9492 2.00023C54.7934 2.02921 53.8534 2.97104 53.8534 4.12814V36.359C53.8534 37.5171 54.7934 38.4589 55.9492 38.4589H89.8529C91.0087 38.4589 91.9487 37.5171 91.9487 36.359L91.6963 25.2175C91.6963 25.2175 91.2617 21.7391 89.5234 18.6956C86.9159 14.7826 88.0518 16.2938 87.3505 15.2175L85.6121 12.4286Z" fill="white"/>
<g filter="url(#filter0_d_2001_10)">
<path d="M91.7211 26.2775C91.3542 22.6114 90.6938 20.394 88.3043 18.3894C86.2328 16.6518 80.1458 13.2322 76.9452 11.6442C78.754 10.1376 80.1509 7.93689 80.3595 6.08451C80.55 4.39724 80.1136 3.87223 79.5098 3.23886C78.933 2.63387 78.127 2.43005 76.9748 2.34234C76.6607 2.31783 76.1444 2.29848 75.6204 2.29074C74.7874 2.28042 73.8785 2.26881 73.8785 2.26881C73.8785 2.26881 75.1132 2.26881 76.313 2.27913C76.5924 2.28171 76.828 2.28816 76.9658 2.29461C77.952 2.34105 78.9407 2.501 79.6256 3.21048C80.7457 4.37144 81.9752 6.51148 84.7033 10.6832C86.7465 13.8062 89.0239 17.2981 90.5714 20.8068C91.4933 22.8978 91.6181 24.8095 91.734 26.3252C91.7726 26.8374 91.8125 27.4862 91.8125 27.4862C91.8125 27.4862 91.7649 26.7458 91.7173 26.2749L91.7211 26.2775Z" fill="url(#paint0_linear_2001_10)"/>
</g>
<path d="M21.157 31.6551H16.2329V9.51308H21.157V31.6551ZM28.8641 13.1483H24.0061L23.94 9.51308H28.8641V13.1483ZM28.9632 31.6551H24.0061V15.0321H28.9632V31.6551ZM41.5723 31.9856C40.2504 31.9856 39.1708 31.7432 38.3336 31.2585C37.5184 30.7738 36.9235 30.179 36.549 29.474H35.4915L35.7559 24.682H36.3838C36.3838 25.4311 36.516 26.037 36.7803 26.4997C37.0668 26.9403 37.4743 27.2598 38.0031 27.458C38.5539 27.6563 39.2259 27.7555 40.019 27.7555C40.724 27.7555 41.3079 27.6673 41.7706 27.4911C42.2553 27.3148 42.6298 27.0504 42.8942 26.6979C43.1806 26.3454 43.3789 25.8938 43.489 25.343C43.5992 24.7701 43.6543 24.1092 43.6543 23.3601C43.6543 22.611 43.5992 21.9611 43.489 21.4103C43.3789 20.8375 43.1806 20.3748 42.8942 20.0223C42.6298 19.6477 42.2553 19.3723 41.7706 19.1961C41.3079 19.0198 40.724 18.9317 40.019 18.9317C39.2259 18.9317 38.5539 19.0419 38.0031 19.2622C37.4743 19.4605 37.0668 19.7799 36.7803 20.2206C36.516 20.6612 36.3838 21.2561 36.3838 22.0051H35.7559L35.4915 17.4776H36.1855C36.6481 16.5743 37.3311 15.8913 38.2344 15.4286C39.1598 14.9439 40.2393 14.7016 41.4731 14.7016C43.8305 14.7016 45.6041 15.4837 46.7938 17.048C48.0056 18.6122 48.6115 20.7163 48.6115 23.3601C48.6115 25.9599 48.0056 28.0529 46.7938 29.6392C45.5821 31.2035 43.8416 31.9856 41.5723 31.9856ZM36.3838 37.2071H31.4266V15.0321H36.0202V18.5682L36.3838 18.9978V37.2071Z" fill="white"/>
<path d="M4.95486 31.7072H7.62939e-06V9.56522H4.95486V31.7072ZM12.8135 23.5114H1.38737V19.083H12.8135V23.5114ZM14.4111 14.0267H1.38737V9.56522H14.4111V14.0267Z" fill="white"/>
<path d="M66.4357 13.928H61.5777L61.5116 10.2927H66.4357V13.928ZM66.5349 32.4348H61.5777V15.8117H66.5349V32.4348ZM76.8659 32.5009C74.7068 32.5009 73.0985 32.0713 72.0409 31.212C70.9834 30.3528 70.4546 28.9427 70.4546 26.9819V16.3074L71.5122 11.9451H75.4118V26.4201C75.4118 27.1471 75.5881 27.5988 75.9406 27.775C76.2931 27.9513 76.9981 28.0394 78.0556 28.0394H80.1046V32.1704C79.708 32.2585 79.2123 32.3356 78.6175 32.4017C78.0446 32.4678 77.4608 32.5009 76.8659 32.5009ZM80.1046 19.9097H67.8108V15.8117H80.1046V19.9097Z" fill="#2D568F"/>
</g>
<defs>
<filter id="filter0_d_2001_10" x="69.5433" y="2.26881" width="26.6044" height="33.8878" filterUnits="userSpaceOnUse" color-interpolation-filters="sRGB">
<feFlood flood-opacity="0" result="BackgroundImageFix"/>
<feColorMatrix in="SourceAlpha" type="matrix" values="0 0 0 0 0 0 0 0 0 0 0 0 0 0 0 0 0 0 127 0" result="hardAlpha"/>
<feOffset dy="4.33519"/>
<feGaussianBlur stdDeviation="2.16759"/>
<feComposite in2="hardAlpha" operator="out"/>
<feColorMatrix type="matrix" values="0 0 0 0 0 0 0 0 0 0 0 0 0 0 0 0 0 0 0.25 0"/>
<feBlend mode="normal" in2="BackgroundImageFix" result="effect1_dropShadow_2001_10"/>
<feBlend mode="normal" in="SourceGraphic" in2="effect1_dropShadow_2001_10" result="shape"/>
</filter>
<linearGradient id="paint0_linear_2001_10" x1="80.2964" y1="16.7073" x2="85.5857" y2="12.9298" gradientUnits="userSpaceOnUse">
<stop offset="0.01" stop-color="#FF8F0A"/>
<stop offset="0.05" stop-color="#FF8F0D"/>
<stop offset="0.39" stop-color="#FF962D"/>
<stop offset="0.58" stop-color="#FF9939"/>
<stop offset="0.59" stop-color="#FF9835"/>
<stop offset="0.72" stop-color="#FF9115"/>
<stop offset="0.79" stop-color="#FF8F0A"/>
<stop offset="0.9" stop-color="#F38605"/>
<stop offset="1" stop-color="#E57B00"/>
</linearGradient>
<clipPath id="clip0_2001_10">
<rect width="93" height="40" fill="white"/>
</clipPath>
</defs>
</svg>
